<svg width="25" height="24" viewBox="0 0 25 24" fill="none" xmlns="http://www.w3.org/2000/svg">
<g clip-path="url(#clip0_361_1017)">
<path d="M23.375 19.5002H21.875V12.7502L22.0944 12.9696C22.2354 13.1103 22.4265 13.1893 22.6257 13.1891C22.8249 13.189 23.0158 13.1097 23.1566 12.9687C23.2973 12.8277 23.3763 12.6366 23.3761 12.4374C23.3759 12.2382 23.2966 12.0472 23.1556 11.9065L13.9353 2.68899C13.654 2.4079 13.2727 2.25 12.875 2.25C12.4773 2.25 12.096 2.4079 11.8147 2.68899L2.59438 11.9065C2.45377 12.0472 2.37483 12.238 2.37491 12.437C2.375 12.6359 2.45411 12.8267 2.59484 12.9673C2.73557 13.1079 2.9264 13.1868 3.12533 13.1867C3.32427 13.1866 3.51502 13.1075 3.65562 12.9668L3.875 12.7502V19.5002H2.375C2.17609 19.5002 1.98532 19.5793 1.84467 19.7199C1.70402 19.8606 1.625 20.0513 1.625 20.2502C1.625 20.4492 1.70402 20.6399 1.84467 20.7806C1.98532 20.9212 2.17609 21.0002 2.375 21.0002H23.375C23.5739 21.0002 23.7647 20.9212 23.9053 20.7806C24.046 20.6399 24.125 20.4492 24.125 20.2502C24.125 20.0513 24.046 19.8606 23.9053 19.7199C23.7647 19.5793 23.5739 19.5002 23.375 19.5002ZM5.375 11.2502L12.875 3.75024L20.375 11.2502V19.5002H15.875V14.2502C15.875 14.0513 15.796 13.8606 15.6553 13.7199C15.5147 13.5793 15.3239 13.5002 15.125 13.5002H10.625C10.4261 13.5002 10.2353 13.5793 10.0947 13.7199C9.95402 13.8606 9.875 14.0513 9.875 14.2502V19.5002H5.375V11.2502ZM14.375 19.5002H11.375V15.0002H14.375V19.5002Z" fill="#3643BA"/>
</g>
<defs>
<clipPath id="clip0_361_1017">
<rect width="24" height="24" fill="white" transform="translate(0.875)"/>
</clipPath>
</defs>
</svg>
