<svg width="25" height="24" viewBox="0 0 25 24" fill="none" xmlns="http://www.w3.org/2000/svg">
<path d="M19.625 3H4.625C4.22718 3 3.84564 3.15804 3.56434 3.43934C3.28304 3.72064 3.125 4.10218 3.125 4.5V19.5C3.125 19.8978 3.28304 20.2794 3.56434 20.5607C3.84564 20.842 4.22718 21 4.625 21H19.625C20.0228 21 20.4044 20.842 20.6857 20.5607C20.967 20.2794 21.125 19.8978 21.125 19.5V4.5C21.125 4.10218 20.967 3.72064 20.6857 3.43934C20.4044 3.15804 20.0228 3 19.625 3ZM4.625 4.5H19.625V11.7544L17.3103 9.43875C17.029 9.15766 16.6477 8.99976 16.25 8.99976C15.8523 8.99976 15.471 9.15766 15.1897 9.43875L5.12844 19.5H4.625V4.5ZM19.625 19.5H7.25L16.25 10.5L19.625 13.875V19.5ZM9.125 11.25C9.57001 11.25 10.005 11.118 10.375 10.8708C10.745 10.6236 11.0334 10.2722 11.2037 9.86104C11.374 9.4499 11.4186 8.9975 11.3318 8.56105C11.245 8.12459 11.0307 7.72368 10.716 7.40901C10.4013 7.09434 10.0004 6.88005 9.56395 6.79323C9.1275 6.70642 8.6751 6.75097 8.26396 6.92127C7.85283 7.09157 7.50143 7.37996 7.25419 7.74997C7.00696 8.11998 6.875 8.55499 6.875 9C6.875 9.59674 7.11205 10.169 7.53401 10.591C7.95597 11.0129 8.52826 11.25 9.125 11.25ZM9.125 8.25C9.27334 8.25 9.41834 8.29399 9.54168 8.3764C9.66501 8.45881 9.76114 8.57594 9.81791 8.71299C9.87468 8.85003 9.88953 9.00083 9.86059 9.14632C9.83165 9.2918 9.76022 9.42544 9.65533 9.53033C9.55044 9.63522 9.4168 9.70665 9.27132 9.73559C9.12583 9.76453 8.97503 9.74968 8.83799 9.69291C8.70094 9.63614 8.58381 9.54001 8.5014 9.41668C8.41899 9.29334 8.375 9.14834 8.375 9C8.375 8.80109 8.45402 8.61032 8.59467 8.46967C8.73532 8.32902 8.92609 8.25 9.125 8.25Z" fill="#3643BA"/>
</svg>
