<svg width="25" height="24" viewBox="0 0 25 24" fill="none" xmlns="http://www.w3.org/2000/svg">
<path d="M8.625 6C8.625 5.80109 8.70402 5.61032 8.84467 5.46967C8.98532 5.32902 9.17609 5.25 9.375 5.25H20.625C20.8239 5.25 21.0147 5.32902 21.1553 5.46967C21.296 5.61032 21.375 5.80109 21.375 6C21.375 6.19891 21.296 6.38968 21.1553 6.53033C21.0147 6.67098 20.8239 6.75 20.625 6.75H9.375C9.17609 6.75 8.98532 6.67098 8.84467 6.53033C8.70402 6.38968 8.625 6.19891 8.625 6ZM20.625 11.25H9.375C9.17609 11.25 8.98532 11.329 8.84467 11.4697C8.70402 11.6103 8.625 11.8011 8.625 12C8.625 12.1989 8.70402 12.3897 8.84467 12.5303C8.98532 12.671 9.17609 12.75 9.375 12.75H20.625C20.8239 12.75 21.0147 12.671 21.1553 12.5303C21.296 12.3897 21.375 12.1989 21.375 12C21.375 11.8011 21.296 11.6103 21.1553 11.4697C21.0147 11.329 20.8239 11.25 20.625 11.25ZM20.625 17.25H9.375C9.17609 17.25 8.98532 17.329 8.84467 17.4697C8.70402 17.6103 8.625 17.8011 8.625 18C8.625 18.1989 8.70402 18.3897 8.84467 18.5303C8.98532 18.671 9.17609 18.75 9.375 18.75H20.625C20.8239 18.75 21.0147 18.671 21.1553 18.5303C21.296 18.3897 21.375 18.1989 21.375 18C21.375 17.8011 21.296 17.6103 21.1553 17.4697C21.0147 17.329 20.8239 17.25 20.625 17.25ZM5.625 5.25H4.125C3.92609 5.25 3.73532 5.32902 3.59467 5.46967C3.45402 5.61032 3.375 5.80109 3.375 6C3.375 6.19891 3.45402 6.38968 3.59467 6.53033C3.73532 6.67098 3.92609 6.75 4.125 6.75H5.625C5.82391 6.75 6.01468 6.67098 6.15533 6.53033C6.29598 6.38968 6.375 6.19891 6.375 6C6.375 5.80109 6.29598 5.61032 6.15533 5.46967C6.01468 5.32902 5.82391 5.25 5.625 5.25ZM5.625 11.25H4.125C3.92609 11.25 3.73532 11.329 3.59467 11.4697C3.45402 11.6103 3.375 11.8011 3.375 12C3.375 12.1989 3.45402 12.3897 3.59467 12.5303C3.73532 12.671 3.92609 12.75 4.125 12.75H5.625C5.82391 12.75 6.01468 12.671 6.15533 12.5303C6.29598 12.3897 6.375 12.1989 6.375 12C6.375 11.8011 6.29598 11.6103 6.15533 11.4697C6.01468 11.329 5.82391 11.25 5.625 11.25ZM5.625 17.25H4.125C3.92609 17.25 3.73532 17.329 3.59467 17.4697C3.45402 17.6103 3.375 17.8011 3.375 18C3.375 18.1989 3.45402 18.3897 3.59467 18.5303C3.73532 18.671 3.92609 18.75 4.125 18.75H5.625C5.82391 18.75 6.01468 18.671 6.15533 18.5303C6.29598 18.3897 6.375 18.1989 6.375 18C6.375 17.8011 6.29598 17.6103 6.15533 17.4697C6.01468 17.329 5.82391 17.25 5.625 17.25Z" fill="#3643BA"/>
</svg>
