<svg width="25" height="24" viewBox="0 0 25 24" fill="none" xmlns="http://www.w3.org/2000/svg">
<g clip-path="url(#clip0_361_1533)">
<path d="M22.3486 19.8746C20.9208 17.4062 18.7205 15.6362 16.1527 14.7971C17.4228 14.041 18.4096 12.8888 18.9616 11.5176C19.5136 10.1463 19.6001 8.63175 19.208 7.20652C18.8159 5.78129 17.9668 4.52418 16.7911 3.62824C15.6153 2.7323 14.178 2.24707 12.6998 2.24707C11.2217 2.24707 9.78434 2.7323 8.60861 3.62824C7.43289 4.52418 6.58377 5.78129 6.19166 7.20652C5.79954 8.63175 5.88612 10.1463 6.43808 11.5176C6.99004 12.8888 7.97687 14.041 9.24703 14.7971C6.67921 15.6352 4.4789 17.4052 3.05109 19.8746C2.99873 19.96 2.964 20.055 2.94895 20.154C2.9339 20.253 2.93883 20.3541 2.96346 20.4511C2.98808 20.5482 3.0319 20.6394 3.09233 20.7192C3.15276 20.7991 3.22857 20.8661 3.3153 20.9162C3.40203 20.9663 3.49791 20.9985 3.59728 21.0109C3.69666 21.0234 3.79752 21.0158 3.89392 20.9886C3.99032 20.9614 4.0803 20.9152 4.15855 20.8527C4.2368 20.7902 4.30173 20.7126 4.34953 20.6246C6.11578 17.5721 9.23765 15.7496 12.6998 15.7496C16.162 15.7496 19.2839 17.5721 21.0502 20.6246C21.0979 20.7126 21.1629 20.7902 21.2411 20.8527C21.3194 20.9152 21.4094 20.9614 21.5058 20.9886C21.6022 21.0158 21.703 21.0234 21.8024 21.0109C21.9018 20.9985 21.9977 20.9663 22.0844 20.9162C22.1711 20.8661 22.2469 20.7991 22.3073 20.7192C22.3678 20.6394 22.4116 20.5482 22.4362 20.4511C22.4608 20.3541 22.4658 20.253 22.4507 20.154C22.4357 20.055 22.4009 19.96 22.3486 19.8746ZM7.44984 8.99962C7.44984 7.96127 7.75775 6.94624 8.33462 6.08288C8.9115 5.21952 9.73144 4.54661 10.6908 4.14925C11.6501 3.75189 12.7057 3.64793 13.7241 3.8505C14.7425 4.05307 15.6779 4.55308 16.4121 5.28731C17.1464 6.02154 17.6464 6.957 17.849 7.9754C18.0515 8.9938 17.9476 10.0494 17.5502 11.0087C17.1528 11.968 16.4799 12.788 15.6166 13.3648C14.7532 13.9417 13.7382 14.2496 12.6998 14.2496C11.3079 14.2481 9.97342 13.6945 8.98917 12.7103C8.00493 11.726 7.45133 10.3916 7.44984 8.99962Z" fill="#3643BA"/>
</g>
<defs>
<clipPath id="clip0_361_1533">
<rect width="24" height="24" fill="white" transform="translate(0.700195)"/>
</clipPath>
</defs>
</svg>
