<svg width="33" height="33" viewBox="0 0 33 33" fill="none" xmlns="http://www.w3.org/2000/svg">
<path d="M26.5 3.09961H9.5C8.43913 3.09961 7.42172 3.52104 6.67157 4.27118C5.92143 5.02133 5.5 6.03874 5.5 7.09961V28.0996C5.5 28.3648 5.60536 28.6192 5.79289 28.8067C5.98043 28.9943 6.23478 29.0996 6.5 29.0996H24.5C24.7652 29.0996 25.0196 28.9943 25.2071 28.8067C25.3946 28.6192 25.5 28.3648 25.5 28.0996C25.5 27.8344 25.3946 27.58 25.2071 27.3925C25.0196 27.205 24.7652 27.0996 24.5 27.0996H7.5C7.5 26.5692 7.71071 26.0605 8.08579 25.6854C8.46086 25.3103 8.96957 25.0996 9.5 25.0996H26.5C26.7652 25.0996 27.0196 24.9943 27.2071 24.8067C27.3946 24.6192 27.5 24.3648 27.5 24.0996V4.09961C27.5 3.83439 27.3946 3.58004 27.2071 3.3925C27.0196 3.20497 26.7652 3.09961 26.5 3.09961ZM25.5 23.0996H9.5C8.79768 23.0987 8.10763 23.2837 7.5 23.6359V7.09961C7.5 6.56918 7.71071 6.06047 8.08579 5.6854C8.46086 5.31032 8.96957 5.09961 9.5 5.09961H25.5V23.0996Z" fill="#3643BA"/>
</svg>
