<svg width="33" height="33" viewBox="0 0 33 33" fill="none" xmlns="http://www.w3.org/2000/svg">
<path d="M28.4308 5.1085C28.4165 4.86386 28.3129 4.63298 28.1396 4.4597C27.9664 4.28641 27.7355 4.18279 27.4908 4.1685C17.9746 3.60975 10.3521 6.47475 7.10208 11.8498C5.97554 13.6884 5.4204 15.8202 5.50708 17.9748C5.57833 19.9648 6.15833 21.9748 7.23083 23.956L4.79208 26.3935C4.60444 26.5811 4.49902 26.8356 4.49902 27.101C4.49902 27.3664 4.60444 27.6209 4.79208 27.8085C4.97972 27.9961 5.23422 28.1016 5.49958 28.1016C5.76494 28.1016 6.01944 27.9961 6.20708 27.8085L8.64458 25.3698C10.6246 26.441 12.6358 27.021 14.6246 27.0923C14.7637 27.0973 14.9025 27.0998 15.0408 27.0998C17.0555 27.1051 19.032 26.5503 20.7496 25.4973C26.1246 22.2473 28.9908 14.626 28.4308 5.1085ZM19.7183 23.7873C16.8746 25.5098 13.5083 25.5373 10.1296 23.8835L21.2083 12.806C21.3012 12.7131 21.3749 12.6028 21.4252 12.4814C21.4755 12.36 21.5014 12.2299 21.5014 12.0985C21.5014 11.9671 21.4755 11.837 21.4252 11.7156C21.3749 11.5942 21.3012 11.4839 21.2083 11.391C21.1154 11.2981 21.0051 11.2244 20.8837 11.1741C20.7623 11.1238 20.6322 11.0979 20.5008 11.0979C20.3694 11.0979 20.2393 11.1238 20.1179 11.1741C19.9965 11.2244 19.8862 11.2981 19.7933 11.391L8.71583 22.4748C7.06708 19.0998 7.09083 15.7248 8.81208 12.886C11.5733 8.32725 18.1371 5.831 26.4758 6.1285C26.7746 14.461 24.2771 21.026 19.7183 23.7873Z" fill="#3643BA"/>
</svg>
