<svg width="33" height="33" viewBox="0 0 33 33" fill="none" xmlns="http://www.w3.org/2000/svg">
<path d="M16.5 0.0996094C13.3355 0.0996094 10.2421 1.03799 7.61088 2.79609C4.9797 4.5542 2.92894 7.05305 1.71793 9.97667C0.506933 12.9003 0.190079 16.1174 0.807443 19.2211C1.42481 22.3247 2.94866 25.1757 5.1863 27.4133C7.42394 29.651 10.2749 31.1748 13.3786 31.7922C16.4823 32.4095 19.6993 32.0927 22.6229 30.8817C25.5466 29.6707 28.0454 27.6199 29.8035 24.9887C31.5616 22.3575 32.5 19.2641 32.5 16.0996C32.4955 11.8575 30.8084 7.79046 27.8088 4.79085C24.8091 1.79124 20.7421 0.104089 16.5 0.0996094ZM6.03847 7.51038C7.76585 9.60151 8.81881 12.1671 9.05847 14.8688H3.01847C3.26133 12.1679 4.31392 9.60321 6.03847 7.51038ZM17.7308 14.8688V2.61807C20.49 2.86797 23.1051 3.96226 25.22 5.75192C23.0327 8.31513 21.719 11.5085 21.4692 14.8688H17.7308ZM15.2692 14.8688H11.5308C11.281 11.5085 9.96726 8.31513 7.78001 5.75192C9.8949 3.96226 12.51 2.86797 15.2692 2.61807V14.8688ZM9.05847 17.3304C8.81881 20.0321 7.76585 22.5977 6.03847 24.6888C4.31392 22.596 3.26133 20.0313 3.01847 17.3304H9.05847ZM11.5308 17.3304H15.2692V29.5811C12.51 29.3312 9.8949 28.237 7.78001 26.4473C9.96699 23.8839 11.2807 20.6906 11.5308 17.3304ZM17.7308 17.3304H21.4692C21.7193 20.6906 23.033 23.8839 25.22 26.4473C23.1051 28.237 20.49 29.3312 17.7308 29.5811V17.3304ZM23.9415 17.3304H29.9815C29.7387 20.0313 28.6861 22.596 26.9615 24.6888C25.2342 22.5977 24.1812 20.0321 23.9415 17.3304ZM23.9415 14.8688C24.1812 12.1671 25.2342 9.60151 26.9615 7.51038C28.6861 9.60321 29.7387 12.1679 29.9815 14.8688H23.9415Z" fill="#3643BA"/>
</svg>
