<svg width="33" height="33" viewBox="0 0 33 33" fill="none" xmlns="http://www.w3.org/2000/svg">
<path d="M30.0385 0.0996094H2.96154C2.3087 0.0996094 1.6826 0.406102 1.22097 0.951662C0.75934 1.49722 0.5 2.23716 0.5 3.0087V29.1905C0.5 29.9621 0.75934 30.702 1.22097 31.2476C1.6826 31.7931 2.3087 32.0996 2.96154 32.0996H30.0385C30.6913 32.0996 31.3174 31.7931 31.779 31.2476C32.2407 30.702 32.5 29.9621 32.5 29.1905V3.0087C32.5 2.23716 32.2407 1.49722 31.779 0.951662C31.3174 0.406102 30.6913 0.0996094 30.0385 0.0996094ZM30.0385 29.1905H2.96154V3.0087H30.0385V29.1905ZM23.8846 8.82688C23.8846 11.1415 23.1066 13.3613 21.7217 14.998C20.3368 16.6347 18.4585 17.5542 16.5 17.5542C14.5415 17.5542 12.6632 16.6347 11.2783 14.998C9.8934 13.3613 9.11538 11.1415 9.11538 8.82688C9.11538 8.44111 9.24506 8.07114 9.47587 7.79836C9.70668 7.52558 10.0197 7.37234 10.3462 7.37234C10.6726 7.37234 10.9856 7.52558 11.2164 7.79836C11.4473 8.07114 11.5769 8.44111 11.5769 8.82688C11.5769 10.37 12.0956 11.8498 13.0189 12.941C13.9421 14.0321 15.1943 14.6451 16.5 14.6451C17.8057 14.6451 19.0579 14.0321 19.9811 12.941C20.9044 11.8498 21.4231 10.37 21.4231 8.82688C21.4231 8.44111 21.5527 8.07114 21.7836 7.79836C22.0144 7.52558 22.3274 7.37234 22.6538 7.37234C22.9803 7.37234 23.2933 7.52558 23.5241 7.79836C23.7549 8.07114 23.8846 8.44111 23.8846 8.82688Z" fill="#3643BA"/>
</svg>
