<svg width="33" height="33" viewBox="0 0 33 33" fill="none" xmlns="http://www.w3.org/2000/svg">
<path d="M31.3333 0.530607C30.9761 0.304059 30.5643 0.161643 30.1337 0.115777C29.7032 0.0699112 29.2671 0.121989 28.8633 0.267468C26.525 1.10767 21.8033 2.51723 16.5 2.51723C11.1967 2.51723 6.47333 1.10767 4.13167 0.267468C3.72764 0.122661 3.29148 0.0709589 2.86093 0.116837C2.43039 0.162714 2.01845 0.304789 1.66077 0.530762C1.30309 0.756734 1.01045 1.05979 0.808196 1.4137C0.605937 1.76761 0.500152 2.1617 0.5 2.56186V11.1439C0.5 16.659 2.10833 21.8618 5.03 25.7904C8.05667 29.8622 12.13 32.0996 16.5 32.0996C20.87 32.0996 24.9433 29.8575 27.97 25.7904C30.8917 21.8649 32.5 16.6621 32.5 11.147V2.56186C32.4992 2.16119 32.3925 1.76675 32.1892 1.41277C31.9859 1.0588 31.6921 0.755982 31.3333 0.530607ZM29.8333 11.1485C29.8333 16.1712 28.39 20.8785 25.7717 24.4024C23.2567 27.7832 19.965 29.6452 16.5 29.6452C13.035 29.6452 9.74333 27.7832 7.22833 24.4009C4.61 20.8739 3.16667 16.1697 3.16667 11.147V2.56186C5.685 3.46515 10.7633 4.97935 16.5 4.97935C22.2367 4.97935 27.3167 3.46515 29.8333 2.56186V11.15V11.1485ZM26.8333 14.0523C27.0689 14.2971 27.1895 14.6184 27.1686 14.9454C27.1476 15.2723 26.9869 15.5782 26.7217 15.7958C26.4565 16.0133 26.1085 16.1246 25.7544 16.1053C25.4002 16.086 25.0689 15.9375 24.8333 15.6927C24.3867 15.231 23.3583 14.8725 22.5 14.8725C21.6417 14.8725 20.6067 15.2325 20.1667 15.6927C19.9308 15.9375 19.5993 16.0859 19.245 16.1051C18.8908 16.1243 18.5427 16.0127 18.2775 15.795C18.0123 15.5773 17.8516 15.2712 17.8308 14.944C17.81 14.6169 17.9308 14.2956 18.1667 14.0507C19.1183 13.069 20.8567 12.4103 22.5 12.4103C24.1433 12.4103 25.875 13.069 26.8333 14.0507V14.0523ZM10.5 14.8725C9.635 14.8725 8.60667 15.2325 8.16667 15.6927C7.93085 15.9375 7.59932 16.0859 7.24504 16.1051C6.89075 16.1243 6.54272 16.0127 6.2775 15.795C6.01228 15.5773 5.85161 15.2712 5.83082 14.944C5.81004 14.6169 5.93085 14.2956 6.16667 14.0507C7.125 13.069 8.86333 12.4103 10.5 12.4103C12.1367 12.4103 13.875 13.069 14.8333 14.0507C15.0692 14.2956 15.19 14.6169 15.1692 14.944C15.1484 15.2712 14.9877 15.5773 14.7225 15.795C14.5912 15.9028 14.4381 15.9857 14.2721 16.0389C14.1061 16.0921 13.9304 16.1146 13.755 16.1051C13.4007 16.0859 13.0692 15.9375 12.8333 15.6927C12.3933 15.2325 11.365 14.8725 10.5 14.8725ZM23.2417 21.8264C22.4141 22.7331 21.3819 23.4619 20.2174 23.9618C19.0529 24.4617 17.7842 24.7208 16.5 24.7208C15.2158 24.7208 13.9471 24.4617 12.7826 23.9618C11.6181 23.4619 10.5859 22.7331 9.75833 21.8264C9.64463 21.7034 9.55827 21.561 9.50419 21.4072C9.45011 21.2534 9.42937 21.0913 9.44314 20.9301C9.45691 20.769 9.50494 20.6119 9.58447 20.4678C9.664 20.3238 9.77349 20.1956 9.90667 20.0906C10.0398 19.9856 10.1941 19.9059 10.3607 19.856C10.5272 19.806 10.7028 19.7869 10.8774 19.7996C11.052 19.8123 11.2221 19.8567 11.3781 19.9301C11.5341 20.0035 11.673 20.1046 11.7867 20.2276C12.3637 20.8637 13.0848 21.3752 13.8992 21.7262C14.7135 22.0772 15.6013 22.2592 16.5 22.2592C17.3987 22.2592 18.2865 22.0772 19.1008 21.7262C19.9152 21.3752 20.6363 20.8637 21.2133 20.2276C21.327 20.1046 21.4659 20.0035 21.6219 19.9301C21.7779 19.8567 21.948 19.8123 22.1226 19.7996C22.2972 19.7869 22.4728 19.806 22.6393 19.856C22.8059 19.9059 22.9602 19.9856 23.0933 20.0906C23.2265 20.1956 23.336 20.3238 23.4155 20.4678C23.4951 20.6119 23.5431 20.769 23.5569 20.9301C23.5706 21.0913 23.5499 21.2534 23.4958 21.4072C23.4417 21.561 23.3554 21.7034 23.2417 21.8264Z" fill="#3643BA"/>
</svg>
