<svg width="33" height="33" viewBox="0 0 33 33" fill="none" xmlns="http://www.w3.org/2000/svg">
<path d="M2.63333 13.4325H5.83333V24.0994H3.7C3.4171 24.0994 3.14579 24.2399 2.94575 24.4899C2.74571 24.74 2.63333 25.0791 2.63333 25.4328C2.63333 25.7864 2.74571 26.1255 2.94575 26.3756C3.14579 26.6257 3.4171 26.7661 3.7 26.7661H29.3C29.5829 26.7661 29.8542 26.6257 30.0542 26.3756C30.2543 26.1255 30.3667 25.7864 30.3667 25.4328C30.3667 25.0791 30.2543 24.74 30.0542 24.4899C29.8542 24.2399 29.5829 24.0994 29.3 24.0994H27.1667V13.4325H30.3667C30.5988 13.4322 30.8244 13.3373 31.0095 13.1621C31.1945 12.987 31.3288 12.7412 31.392 12.4621C31.4552 12.1829 31.4438 11.8856 31.3596 11.6153C31.2753 11.3449 31.1229 11.1163 30.9253 10.9641L17.0587 0.297119C16.8906 0.167979 16.6973 0.0996094 16.5 0.0996094C16.3028 0.0996094 16.1094 0.167979 15.9413 0.297119L2.07467 10.9641C1.8771 11.1163 1.72465 11.3449 1.64044 11.6153C1.55623 11.8856 1.54485 12.1829 1.60803 12.4621C1.67121 12.7412 1.8055 12.987 1.99054 13.1621C2.17557 13.3373 2.40125 13.4322 2.63333 13.4325ZM7.96667 13.4325H12.2333V24.0994H7.96667V13.4325ZM18.6333 13.4325V24.0994H14.3667V13.4325H18.6333ZM25.0333 24.0994H20.7667V13.4325H25.0333V24.0994ZM16.5 2.99719L26.5987 10.7657H6.40133L16.5 2.99719ZM32.5 30.7662C32.5 31.1199 32.3876 31.459 32.1876 31.7091C31.9875 31.9591 31.7162 32.0996 31.4333 32.0996H1.56667C1.28377 32.0996 1.01246 31.9591 0.812419 31.7091C0.612381 31.459 0.5 31.1199 0.5 30.7662C0.5 30.4126 0.612381 30.0735 0.812419 29.8234C1.01246 29.5734 1.28377 29.4329 1.56667 29.4329H31.4333C31.7162 29.4329 31.9875 29.5734 32.1876 29.8234C32.3876 30.0735 32.5 30.4126 32.5 30.7662Z" fill="#3643BA"/>
</svg>
