<svg width="33" height="33" viewBox="0 0 33 33" fill="none" xmlns="http://www.w3.org/2000/svg">
<path d="M26.5 4.09961H6.5C5.96957 4.09961 5.46086 4.31032 5.08579 4.6854C4.71071 5.06047 4.5 5.56918 4.5 6.09961V26.0996C4.5 26.63 4.71071 27.1387 5.08579 27.5138C5.46086 27.8889 5.96957 28.0996 6.5 28.0996H26.5C27.0304 28.0996 27.5391 27.8889 27.9142 27.5138C28.2893 27.1387 28.5 26.63 28.5 26.0996V6.09961C28.5 5.56918 28.2893 5.06047 27.9142 4.6854C27.5391 4.31032 27.0304 4.09961 26.5 4.09961ZM6.5 6.09961H26.5V15.7721L23.4137 12.6846C23.0387 12.3098 22.5302 12.0993 22 12.0993C21.4698 12.0993 20.9613 12.3098 20.5863 12.6846L7.17125 26.0996H6.5V6.09961ZM26.5 26.0996H10L22 14.0996L26.5 18.5996V26.0996ZM12.5 15.0996C13.0933 15.0996 13.6734 14.9237 14.1667 14.594C14.6601 14.2644 15.0446 13.7958 15.2716 13.2477C15.4987 12.6995 15.5581 12.0963 15.4424 11.5143C15.3266 10.9324 15.0409 10.3978 14.6213 9.97829C14.2018 9.55873 13.6672 9.27301 13.0853 9.15725C12.5033 9.0415 11.9001 9.10091 11.3519 9.32797C10.8038 9.55503 10.3352 9.93955 10.0056 10.4329C9.67595 10.9262 9.5 11.5063 9.5 12.0996C9.5 12.8953 9.81607 13.6583 10.3787 14.2209C10.9413 14.7835 11.7044 15.0996 12.5 15.0996ZM12.5 11.0996C12.6978 11.0996 12.8911 11.1583 13.0556 11.2681C13.22 11.378 13.3482 11.5342 13.4239 11.7169C13.4996 11.8997 13.5194 12.1007 13.4808 12.2947C13.4422 12.4887 13.347 12.6669 13.2071 12.8067C13.0673 12.9466 12.8891 13.0418 12.6951 13.0804C12.5011 13.119 12.3 13.0992 12.1173 13.0235C11.9346 12.9478 11.7784 12.8196 11.6685 12.6552C11.5586 12.4907 11.5 12.2974 11.5 12.0996C11.5 11.8344 11.6054 11.58 11.7929 11.3925C11.9804 11.205 12.2348 11.0996 12.5 11.0996Z" fill="#3643BA"/>
</svg>
