<svg width="33" height="33" viewBox="0 0 33 33" fill="none" xmlns="http://www.w3.org/2000/svg">
<path d="M30.4426 7.97432C30.381 7.71832 30.2691 7.47711 30.1136 7.26468C29.958 7.05225 29.7618 6.87282 29.5363 6.73682C25.6041 4.35806 21.0959 3.10059 16.5001 3.10059C11.9043 3.10059 7.39612 4.35806 3.46385 6.73682C3.23904 6.87316 3.04332 7.05248 2.88789 7.26454C2.73246 7.47659 2.62037 7.71721 2.55802 7.97263C2.49567 8.22805 2.4843 8.49326 2.52455 8.75308C2.5648 9.0129 2.65589 9.26223 2.7926 9.48682L14.7926 29.1456C14.9709 29.4395 15.2219 29.6824 15.5214 29.8511C15.8209 30.0197 16.1589 30.1083 16.5026 30.1083C16.8463 30.1083 17.1843 30.0197 17.4838 29.8511C17.7833 29.6824 18.0343 29.4395 18.2126 29.1456L30.2126 9.48682C30.3495 9.26262 30.4403 9.0134 30.4798 8.75371C30.5193 8.49402 30.5066 8.22906 30.4426 7.97432ZM8.44885 14.9118C8.77377 14.6056 9.16295 14.3758 9.58799 14.2391C10.013 14.1024 10.4632 14.0623 10.9057 14.1218C11.3482 14.1812 11.7719 14.3387 12.1458 14.5826C12.5197 14.8266 12.8344 15.151 13.067 15.5321C13.2997 15.9132 13.4443 16.3414 13.4904 16.7855C13.5364 17.2296 13.4828 17.6784 13.3334 18.0991C13.184 18.5198 12.9425 18.9019 12.6266 19.2174C12.3108 19.533 11.9285 19.7741 11.5076 19.9231L8.44885 14.9118ZM19.4388 23.2806C18.9381 22.8084 18.6149 22.1783 18.5235 21.4961C18.4322 20.8139 18.5782 20.121 18.937 19.5337C19.2959 18.9464 19.8459 18.5003 20.4946 18.2703C21.1433 18.0403 21.8514 18.0404 22.5001 18.2706L19.4388 23.2806ZM23.5551 16.5393C22.4436 16.0348 21.186 15.9543 20.0192 16.313C18.8525 16.6717 17.8573 17.4448 17.2212 18.4866C16.5851 19.5284 16.352 20.7669 16.566 21.9686C16.7799 23.1704 17.426 24.2523 18.3826 25.0106L16.5001 28.0993L12.5626 21.6531C13.209 21.3618 13.7861 20.9363 14.2556 20.4049C14.725 19.8735 15.0761 19.2484 15.2855 18.5709C15.4948 17.8935 15.5577 17.1793 15.47 16.4757C15.3822 15.7721 15.1458 15.0952 14.7765 14.49C14.4071 13.8847 13.9133 13.3649 13.3277 12.9651C12.7421 12.5653 12.0782 12.2947 11.38 12.1711C10.6818 12.0475 9.9653 12.0738 9.27805 12.2483C8.59081 12.4227 7.94853 12.7414 7.39385 13.1831L6.6001 11.8818C9.58139 10.062 13.0066 9.09916 16.4995 9.09916C19.9923 9.09916 23.4176 10.062 26.3989 11.8818L23.5551 16.5393ZM27.4426 10.1731C24.1467 8.16286 20.3607 7.09941 16.5001 7.09941C12.6395 7.09941 8.85353 8.16286 5.5576 10.1731L4.5001 8.44557C8.12039 6.25758 12.27 5.10104 16.5001 5.10104C20.7302 5.10104 24.8798 6.25758 28.5001 8.44557L27.4426 10.1731Z" fill="#3643BA"/>
</svg>
