<svg width="33" height="33" viewBox="0 0 33 33" fill="none" xmlns="http://www.w3.org/2000/svg">
<path d="M29.1901 9.37582C29.0726 9.26541 28.9303 9.18502 28.7751 9.14149C28.6199 9.09796 28.4565 9.09259 28.2988 9.12582C28.1046 8.42779 27.7744 7.775 27.3272 7.20496C26.88 6.63492 26.3246 6.15886 25.6928 5.80413C25.061 5.44939 24.3654 5.22298 23.6459 5.13789C22.9264 5.05281 22.1971 5.11073 21.5 5.30832C21.0613 4.35091 20.3569 3.53959 19.4706 2.97078C18.5842 2.40198 17.5532 2.09961 16.5001 2.09961C15.4469 2.09961 14.4159 2.40198 13.5295 2.97078C12.6432 3.53959 11.9388 4.35091 11.5001 5.30832C10.8031 5.11047 10.074 5.05225 9.35454 5.137C8.63507 5.22175 7.93942 5.44781 7.30757 5.80218C6.67571 6.15656 6.12009 6.63227 5.67261 7.202C5.22513 7.77172 4.89462 8.42424 4.70005 9.12207C4.53578 9.08836 4.36566 9.0965 4.20536 9.14575C4.04506 9.19499 3.89971 9.28376 3.7827 9.40389C3.66569 9.52402 3.58076 9.67164 3.53574 9.83318C3.49071 9.99472 3.48704 10.165 3.52505 10.3283L7.34505 26.5583C7.44846 26.9971 7.69707 27.3881 8.05058 27.6679C8.40408 27.9476 8.84174 28.0998 9.29255 28.0996H23.7076C24.1584 28.0998 24.596 27.9476 24.9495 27.6679C25.303 27.3881 25.5516 26.9971 25.6551 26.5583L29.4738 10.3283C29.5136 10.1586 29.5084 9.98141 29.4586 9.81432C29.4089 9.64724 29.3163 9.49608 29.1901 9.37582ZM10.0001 7.09957C10.5716 7.09798 11.1346 7.23798 11.6388 7.50707C11.7749 7.57927 11.9259 7.61904 12.0799 7.62328C12.2339 7.62751 12.3869 7.59609 12.5267 7.53148C12.6666 7.46686 12.7897 7.37079 12.8863 7.25077C12.9829 7.13075 13.0505 6.99002 13.0838 6.83957C13.2569 6.0626 13.6897 5.36784 14.3107 4.86992C14.9318 4.37199 15.704 4.10065 16.5001 4.10065C17.2961 4.10065 18.0683 4.37199 18.6894 4.86992C19.3104 5.36784 19.7432 6.0626 19.9163 6.83957C19.9496 6.99002 20.0172 7.13075 20.1138 7.25077C20.2104 7.37079 20.3335 7.46686 20.4734 7.53148C20.6132 7.59609 20.7662 7.62751 20.9202 7.62328C21.0742 7.61904 21.2252 7.57927 21.3613 7.50707C21.8242 7.26154 22.3363 7.12307 22.8598 7.10187C23.3834 7.08068 23.905 7.1773 24.3862 7.38462C24.8674 7.59193 25.296 7.90465 25.6402 8.29969C25.9844 8.69473 26.2355 9.16201 26.375 9.66707L21.555 11.0421L17.2438 9.31707C16.7671 9.12649 16.2355 9.12649 15.7588 9.31707L11.4463 11.0446L6.62505 9.66707C6.82914 8.92876 7.2698 8.27778 7.87944 7.814C8.48909 7.35022 9.23405 7.09924 10.0001 7.09957ZM9.29255 26.0996L5.8638 11.5296L10.5951 12.8808L12.3576 26.0996H9.29255ZM18.6251 26.0996H14.3751L12.5938 12.7396L16.5001 11.1771L20.4063 12.7396L18.6251 26.0996ZM23.7076 26.0996H20.6425L22.4051 12.8808L27.1363 11.5296L23.7076 26.0996Z" fill="#3643BA"/>
</svg>
