<svg width="375" height="495" viewBox="0 0 375 495" fill="none" xmlns="http://www.w3.org/2000/svg">
<path d="M27.8471 147.168C21.3814 111.088 -8.8472 98.0593 -23.1533 96.0548V408.498H388.194V0.0917969C362.183 8.77775 311.554 38.026 317.128 85.5315C255.816 97.1573 252.193 127.291 258.046 140.904C238.258 133.304 198.684 133.137 198.684 193.271C157.661 168.215 118.05 187.007 103.372 199.535C99.935 175.481 80.0179 131.333 27.8471 147.168Z" fill="#D0EEF9"/>
<path d="M-44.7827 361.851C-154.023 365.564 -184.726 616.17 -186.422 645.949H388.192V142.951C347.623 138.955 260.547 155.559 236.799 253.948C143.504 229.583 108.306 313.121 111.699 305.386C115.091 297.651 -12.9775 211.406 -44.7827 361.851Z" fill="#E0B0FF"/>
</svg>
