<svg xmlns="http://www.w3.org/2000/svg" width="32" height="32" viewBox="0 0 32 32">
  <g fill="none" fill-rule="evenodd">
    <path fill="#0082C3" d="M16,0 C7.163,0 0,7.163 0,16 C0,24.837 7.163,32 16,32 C24.837,32 32,24.837 32,16 C32,7.163 24.837,0 16,0 Z"/>
    <path fill="#FFFFFF" d="M16,4 C10.477,4 6,8.477 6,14 C6,17.991 8.657,21.431 12.438,22.562 L16,30 L19.562,22.562 C23.343,21.431 26,17.991 26,14 C26,8.477 21.523,4 16,4 Z M16,18 C13.791,18 12,16.209 12,14 C12,11.791 13.791,10 16,10 C18.209,10 20,11.791 20,14 C20,16.209 18.209,18 16,18 Z"/>
  </g>
</svg> 