<svg width="18" height="15" viewBox="0 0 18 15" fill="none" xmlns="http://www.w3.org/2000/svg">
<path d="M0.75 3.75002H3.84375C4.00898 4.39533 4.38428 4.9673 4.91048 5.37575C5.43669 5.7842 6.08387 6.00591 6.75 6.00591C7.41613 6.00591 8.06331 5.7842 8.58952 5.37575C9.11572 4.9673 9.49102 4.39533 9.65625 3.75002H17.25C17.4489 3.75002 17.6397 3.67101 17.7803 3.53035C17.921 3.3897 18 3.19894 18 3.00002C18 2.80111 17.921 2.61035 17.7803 2.46969C17.6397 2.32904 17.4489 2.25002 17.25 2.25002H9.65625C9.49102 1.60471 9.11572 1.03274 8.58952 0.624293C8.06331 0.215842 7.41613 -0.00585938 6.75 -0.00585938C6.08387 -0.00585938 5.43669 0.215842 4.91048 0.624293C4.38428 1.03274 4.00898 1.60471 3.84375 2.25002H0.75C0.551088 2.25002 0.360322 2.32904 0.21967 2.46969C0.0790178 2.61035 0 2.80111 0 3.00002C0 3.19894 0.0790178 3.3897 0.21967 3.53035C0.360322 3.67101 0.551088 3.75002 0.75 3.75002ZM6.75 1.50002C7.04667 1.50002 7.33668 1.588 7.58335 1.75282C7.83003 1.91764 8.02229 2.15191 8.13582 2.426C8.24935 2.70009 8.27906 3.00169 8.22118 3.29266C8.1633 3.58363 8.02044 3.8509 7.81066 4.06068C7.60088 4.27046 7.33361 4.41332 7.04264 4.4712C6.75166 4.52908 6.45006 4.49937 6.17597 4.38584C5.90189 4.27231 5.66762 4.08005 5.5028 3.83338C5.33797 3.5867 5.25 3.2967 5.25 3.00002C5.25 2.6022 5.40804 2.22067 5.68934 1.93936C5.97064 1.65806 6.35218 1.50002 6.75 1.50002ZM17.25 11.25H15.6562C15.491 10.6047 15.1157 10.0327 14.5895 9.62429C14.0633 9.21584 13.4161 8.99414 12.75 8.99414C12.0839 8.99414 11.4367 9.21584 10.9105 9.62429C10.3843 10.0327 10.009 10.6047 9.84375 11.25H0.75C0.551088 11.25 0.360322 11.329 0.21967 11.4697C0.0790178 11.6103 0 11.8011 0 12C0 12.1989 0.0790178 12.3897 0.21967 12.5304C0.360322 12.671 0.551088 12.75 0.75 12.75H9.84375C10.009 13.3953 10.3843 13.9673 10.9105 14.3758C11.4367 14.7842 12.0839 15.0059 12.75 15.0059C13.4161 15.0059 14.0633 14.7842 14.5895 14.3758C15.1157 13.9673 15.491 13.3953 15.6562 12.75H17.25C17.4489 12.75 17.6397 12.671 17.7803 12.5304C17.921 12.3897 18 12.1989 18 12C18 11.8011 17.921 11.6103 17.7803 11.4697C17.6397 11.329 17.4489 11.25 17.25 11.25ZM12.75 13.5C12.4533 13.5 12.1633 13.412 11.9166 13.2472C11.67 13.0824 11.4777 12.8481 11.3642 12.574C11.2506 12.3 11.2209 11.9984 11.2788 11.7074C11.3367 11.4164 11.4796 11.1491 11.6893 10.9394C11.8991 10.7296 12.1664 10.5867 12.4574 10.5288C12.7483 10.471 13.0499 10.5007 13.324 10.6142C13.5981 10.7277 13.8324 10.92 13.9972 11.1667C14.162 11.4133 14.25 11.7034 14.25 12C14.25 12.3978 14.092 12.7794 13.8107 13.0607C13.5294 13.342 13.1478 13.5 12.75 13.5Z" fill="#3643BA"/>
</svg>
